<svg width="512" height="246" viewBox="0 0 512 246" fill="none" xmlns="http://www.w3.org/2000/svg">
<g clip-path="url(#clip0_109_262)">
<path d="M474.261 199.16H478.811L493.221 146.24H511.581L489.141 227.72C487.381 233.799 484.541 238.4 480.621 241.52C476.701 244.72 471.861 246.32 466.101 246.32C458.981 246.32 453.421 244.36 449.421 240.44C445.421 236.6 443.061 230.92 442.341 223.4H459.261C460.141 225.72 461.061 227.36 462.021 228.32C463.06 229.36 464.381 229.88 465.98 229.88C467.5 229.88 468.74 229.32 469.7 228.2C470.74 227.08 471.621 225.32 472.341 222.92L474.759 214.04H459.74L437.661 146.24H457.581L474.261 199.16ZM37.7998 121.76C44.7598 121.76 50.7598 123.2 55.7998 126.08C60.8397 128.96 64.7997 133.16 67.6797 138.68C70.6397 144.2 72.3197 150.88 72.7197 158.72H54.2402C53.0402 152.56 51.0803 147.96 48.3604 144.92C45.7204 141.8 42.1998 140.24 37.7998 140.24C31.8799 140.24 27.4796 142.88 24.5996 148.16C21.7197 153.36 20.2803 161.32 20.2803 172.04C20.2803 182.76 21.6404 190.76 24.3604 196.04C27.0803 201.24 31.1999 203.84 36.7197 203.84C40.7997 203.84 44.1197 202.4 46.6797 199.52C49.3196 196.64 51.2404 192.36 52.4404 186.68H70.9199C70.4399 194.2 68.7599 200.64 65.8799 206C62.9999 211.28 59.0801 215.32 54.1201 218.12C49.2401 220.92 43.4397 222.32 36.7197 222.32C24.7199 222.32 15.6003 218.08 9.36035 209.6C3.1204 201.12 4.79182e-06 188.6 0 172.04C0 155.48 3.19985 142.96 9.59961 134.48C15.9996 126.001 25.3999 121.76 37.7998 121.76ZM108.264 143.96C115.464 143.96 121.703 145.56 126.983 148.76C132.263 151.96 136.344 156.48 139.224 162.32C142.104 168.16 143.543 175.12 143.543 183.2C143.543 191.2 142.104 198.12 139.224 203.96C136.344 209.8 132.263 214.32 126.983 217.52C121.783 220.719 115.544 222.32 108.264 222.32C101.064 222.32 94.823 220.72 89.543 217.52C84.2633 214.32 80.1836 209.8 77.3037 203.96C74.4237 198.12 72.9834 191.2 72.9834 183.2C72.9834 175.12 74.4238 168.16 77.3037 162.32C80.1837 156.48 84.2631 151.96 89.543 148.76C94.823 145.56 101.064 143.96 108.264 143.96ZM168.527 188.36C168.527 193.56 169.567 197.52 171.646 200.24C173.726 202.88 176.807 204.2 180.887 204.2C185.047 204.2 188.167 202.88 190.247 200.24C192.327 197.52 193.367 193.56 193.367 188.36V146.24H212.807V220.04H193.367V213.32H188.927C187.327 216.2 185.087 218.44 182.207 220.04C179.327 221.56 176.007 222.32 172.247 222.32C167.367 222.32 163.207 221.16 159.767 218.84C156.327 216.52 153.687 213.2 151.847 208.88C150.007 204.48 149.087 199.2 149.087 193.04V146.24H168.527V188.36ZM327.454 146.24H359.733V163.52H327.454V194.36C327.454 197.88 328.094 200.56 329.374 202.4C330.654 204.16 332.534 205.04 335.014 205.04C337.574 205.04 339.654 203.96 341.254 201.8C342.854 199.64 344.134 196.12 345.094 191.24H362.254C361.774 201.32 359.134 209.04 354.334 214.4C349.614 219.68 343.014 222.32 334.534 222.32C325.974 222.32 319.414 219.92 314.854 215.12C310.294 210.32 308.014 203.44 308.014 194.48V163.52H294.214V146.24H308.014V127.16H327.454V146.24ZM263.95 143.96C268.83 143.96 272.991 145.12 276.431 147.44C279.87 149.76 282.511 153.12 284.351 157.52C286.191 161.84 287.11 167.08 287.11 173.24V220.04H267.67V178.04C267.67 172.76 266.631 168.8 264.551 166.16C262.471 163.44 259.39 162.08 255.311 162.08C251.151 162.08 248.03 163.44 245.95 166.16C243.87 168.8 242.83 172.76 242.83 178.04V220.04H223.391V146.24H242.83V152.96H247.271C248.87 150.16 251.11 147.96 253.99 146.36C256.87 144.76 260.19 143.96 263.95 143.96ZM419.877 144.08C425.717 144.08 430.117 146.32 433.077 150.8C436.117 155.2 437.637 161.72 437.637 170.36V182.24H417.837V172.88C417.837 166.16 415.357 162.8 410.397 162.8C407.197 162.8 404.837 164.24 403.317 167.12C401.797 170 401.037 174.4 401.037 180.32V202.76H421.917V220.04H369.957V202.76H382.317V163.52H368.518V146.24H400.317V152.96H404.757C406.117 150.16 408.117 148 410.757 146.48C413.477 144.881 416.517 144.08 419.877 144.08ZM108.264 161.24C103.064 161.24 98.9834 163.16 96.0234 167C93.1434 170.84 91.7031 176.24 91.7031 183.2C91.7032 190.08 93.1435 195.44 96.0234 199.28C98.9834 203.12 103.064 205.04 108.264 205.04C113.544 205.04 117.624 203.12 120.504 199.28C123.384 195.44 124.823 190.08 124.823 183.2C124.823 176.24 123.384 170.84 120.504 167C117.624 163.16 113.544 161.24 108.264 161.24ZM108.21 27.96C115.41 27.96 121.651 29.5598 126.931 32.7598C132.211 35.9598 136.29 40.4804 139.17 46.3203C142.05 52.1603 143.49 59.1202 143.49 67.2002C143.49 75.2001 142.05 82.12 139.17 87.96C136.29 93.7997 132.21 98.3196 126.931 101.52C121.731 104.72 115.49 106.32 108.21 106.32C101.01 106.32 94.7701 104.719 89.4902 101.52C84.2104 98.3195 80.13 93.7999 77.25 87.96C74.3701 82.12 72.9307 75.2 72.9307 67.2002C72.9307 59.1204 74.3701 52.1602 77.25 46.3203C80.13 40.4803 84.2102 35.9598 89.4902 32.7598C94.7701 29.5598 101.01 27.96 108.21 27.96ZM254.41 27.96C261.21 27.96 267.011 29.4795 271.811 32.5195C276.461 35.4645 280.06 39.686 282.607 45.1836L283.094 46.2559C285.571 51.8358 286.811 58.6171 286.811 66.5996C286.811 67.8796 286.73 69.0802 286.57 70.2002C286.49 71.3201 286.41 72.3604 286.33 73.3203H238.968C239.539 77.6809 240.726 81.2008 242.53 83.8799C245.17 87.7199 249.291 89.6396 254.891 89.6396C258.09 89.6396 260.89 88.9203 263.29 87.4805C265.77 85.9605 267.89 83.8401 269.65 81.1201H288.37C286.77 86.48 284.37 91.0398 281.17 94.7998C277.97 98.5598 274.09 101.44 269.53 103.44C265.05 105.36 260.01 106.32 254.41 106.32C247.21 106.32 241.011 104.76 235.811 101.64C230.691 98.5197 226.731 94 223.931 88.0801C221.211 82.1601 219.851 75.0397 219.851 66.7197C219.851 58.7998 221.251 51.9601 224.051 46.2002C226.931 40.3603 230.97 35.8798 236.17 32.7598C241.37 29.5598 247.45 27.96 254.41 27.96ZM402.21 27.96C409.41 27.96 415.651 29.5598 420.931 32.7598C426.211 35.9598 430.29 40.4804 433.17 46.3203C436.05 52.1603 437.49 59.1202 437.49 67.2002C437.49 75.2001 436.05 82.12 433.17 87.96C430.29 93.7997 426.21 98.3196 420.931 101.52C415.731 104.72 409.49 106.32 402.21 106.32C395.01 106.32 388.77 104.719 383.49 101.52C378.21 98.3195 374.13 93.7999 371.25 87.96C368.37 82.12 366.931 75.2 366.931 67.2002C366.931 59.1204 368.37 52.1602 371.25 46.3203C374.13 40.4803 378.21 35.9598 383.49 32.7598C388.77 29.5598 395.01 27.96 402.21 27.96ZM28.6504 84.8398H68.3701V104.04H8.37012V8.04004H28.6504V84.8398ZM180.73 89.6396H182.891L199.45 30.2402H217.931L197.051 104.04H165.37L144.49 30.2402H164.17L180.73 89.6396ZM484.61 0C493.01 8.47707e-06 499.61 2.00006 504.41 6C509.29 10 511.97 15.68 512.45 23.04H494.21C493.33 20.8801 492.09 19.2802 490.49 18.2402C488.97 17.2003 487.05 16.6797 484.73 16.6797C481.93 16.6797 479.81 17.4801 478.37 19.0801C477.01 20.6801 476.33 23.0001 476.33 26.04V30.2402H503.57V47.5195H476.33V104.04H456.891V47.5195H440.931V30.2402H456.891V25.9199C456.891 17.6 459.29 11.1997 464.09 6.71973C468.89 2.23973 475.73 0 484.61 0ZM108.21 45.2402C103.01 45.2403 98.9306 47.1602 95.9707 51C93.0907 54.84 91.6504 60.2402 91.6504 67.2002C91.6504 74.0801 93.0907 79.4403 95.9707 83.2803C98.9306 87.1199 103.01 89.04 108.21 89.04C113.49 89.04 117.57 87.1201 120.45 83.2803C123.33 79.4403 124.77 74.0801 124.771 67.2002C124.771 60.2402 123.33 54.84 120.45 51C117.57 47.16 113.49 45.2402 108.21 45.2402ZM402.21 45.2402C397.01 45.2403 392.931 47.1602 389.971 51C387.091 54.84 385.65 60.2402 385.65 67.2002C385.65 74.0801 387.091 79.4403 389.971 83.2803C392.931 87.1199 397.01 89.04 402.21 89.04C407.49 89.04 411.57 87.1201 414.45 83.2803C417.33 79.4403 418.77 74.0801 418.771 67.2002C418.771 60.2402 417.33 54.84 414.45 51C411.57 47.16 407.49 45.2402 402.21 45.2402ZM254.41 44.6396C249.21 44.6397 245.25 46.5998 242.53 50.5195C240.903 52.8868 239.778 55.8474 239.153 59.4004H269.146C268.554 55.5879 267.444 52.5077 265.811 50.1602C263.331 46.4802 259.53 44.6396 254.41 44.6396Z" fill="white"/>
</g>
<defs>
<clipPath id="clip0_109_262">
<rect width="512" height="246" fill="white"/>
</clipPath>
</defs>
</svg>
